<svg width="74" height="111" viewBox="0 0 74 111" fill="none" xmlns="http://www.w3.org/2000/svg">
<path d="M10.95 88.35C20.55 80.05 28.1 73.25 33.6 67.95C39.2 62.55 43.85 56.95 47.55 51.15C51.25 45.35 53.1 39.55 53.1 33.75C53.1 27.75 51.65 23.05 48.75 19.65C45.95 16.25 41.5 14.55 35.4 14.55C29.5 14.55 24.9 16.45 21.6 20.25C18.4 23.95 16.7 28.95 16.5 35.25H0C0.3 23.85 3.7 15.15 10.2 9.15C16.8 3.05 25.15 0 35.25 0C46.15 0 54.65 3 60.75 9C66.95 15 70.05 23 70.05 33C70.05 40.2 68.2 47.15 64.5 53.85C60.9 60.45 56.55 66.4 51.45 71.7C46.45 76.9 40.05 82.95 32.25 89.85L25.5 95.85H73.05V110.1H0.15V97.65L10.95 88.35Z" fill="#FAC9AE"/>
</svg>
