<svg width="64" height="102" viewBox="0 0 64 102" fill="none" xmlns="http://www.w3.org/2000/svg">
<path d="M1.31687 26.792C1.84362 18.36 4.96022 11.7867 10.6667 7.07201C16.4609 2.35734 23.8354 0 32.7901 0C38.9355 0 44.2469 1.13333 48.7243 3.4C53.2016 5.66667 56.5816 8.74933 58.8642 12.648C61.1468 16.5467 62.2881 20.944 62.2881 25.84C62.2881 31.4613 60.8395 36.2667 57.9424 40.256C55.0453 44.2453 51.5775 46.92 47.5391 48.28V48.824C52.7188 50.456 56.7572 53.448 59.6543 57.8C62.5514 62.0613 64 67.5467 64 74.256C64 79.6053 62.8148 84.3653 60.4444 88.536C58.0741 92.7067 54.5624 96.016 49.9095 98.464C45.2565 100.821 39.6818 102 33.1852 102C23.7037 102 15.8903 99.5067 9.74486 94.52C3.68724 89.4427 0.438958 82.1893 0 72.76H14.4856C14.8368 77.5653 16.6365 81.5093 19.8848 84.592C23.1331 87.584 27.5226 89.08 33.0535 89.08C38.4088 89.08 42.535 87.584 45.4321 84.592C48.3292 81.5093 49.7778 77.5653 49.7778 72.76C49.7778 66.4133 47.8025 61.9253 43.8519 59.296C39.989 56.576 34.0192 55.216 25.9424 55.216H22.5185V42.432H26.0741C33.1852 42.3413 38.5844 41.1173 42.2716 38.76C46.0466 36.4027 47.9342 32.6853 47.9342 27.608C47.9342 23.256 46.5734 19.8107 43.8519 17.272C41.1303 14.6427 37.2675 13.328 32.2634 13.328C27.3471 13.328 23.5281 14.6427 20.8066 17.272C18.085 19.8107 16.4609 22.984 15.9342 26.792H1.31687Z" fill="#FAC9AE"/>
</svg>
