<svg width="345" height="187" viewBox="0 0 345 187" fill="none" xmlns="http://www.w3.org/2000/svg">
<rect x="86.2026" width="89.4868" height="50.3366" rx="25.1683" fill="#F9D9C6"/>
<rect width="89.7247" height="50.3366" rx="25.1683" transform="matrix(-1 0 0 1 275.886 0)" fill="#FF5C00"/>
<path d="M101.088 57.4324C97.7941 60.2019 92.7692 57.8866 92.8285 53.6265L92.9259 46.6219C92.9763 42.9993 96.7964 40.6113 100.104 42.1352L105.422 44.586C108.729 46.1098 109.305 50.5234 106.504 52.8785L101.088 57.4324Z" fill="#F9D9C6"/>
<path d="M260.971 57.4491C264.268 60.2147 269.291 57.9062 269.232 53.6522L269.134 46.6213C269.083 43.0001 265.258 40.6094 261.948 42.1306L256.596 44.5905C253.286 46.1118 252.714 50.5239 255.521 52.8781L260.971 57.4491Z" fill="#FF5C00"/>
<path fill-rule="evenodd" clip-rule="evenodd" d="M84.624 70.8819C73.0715 71.6497 65.5049 83.1302 57.8711 92.5619C50.9413 101.124 43.5357 110.175 43.6017 121.565C43.6674 132.905 51.6296 141.387 58.2052 150.206C66.029 160.699 72.1938 175.913 84.624 176.583C97.183 177.261 105.578 163.511 113.81 153.206C121.231 143.918 128.378 133.852 128.581 121.565C128.786 109.091 122.754 97.8626 114.871 88.7736C106.692 79.3431 96.5416 70.0899 84.624 70.8819Z" fill="#F9D9C6"/>
<ellipse rx="3.46762" ry="6.92189" transform="matrix(-0.992383 0.123193 0.0964893 0.995334 100.84 107.189)" fill="#F8F8F8"/>
<ellipse rx="2.45603" ry="4.9026" transform="matrix(-0.992383 0.123193 0.0964893 0.995334 102.489 108.622)" fill="#151515"/>
<ellipse rx="3.46762" ry="6.92189" transform="matrix(-0.992383 0.123193 0.0964893 0.995334 87.4357 110.758)" fill="#F8F8F8"/>
<ellipse rx="2.45603" ry="4.9026" transform="matrix(-0.992383 0.123193 0.0964893 0.995334 89.2003 111.426)" fill="#151515"/>
<path d="M104.905 162.316C108.2 162.632 109.884 166.491 109.884 169.83C109.884 171.548 109.957 172.424 111.474 173.079C113.157 173.807 115.025 174.458 116.844 174.483C117.267 174.489 120.186 174.483 118.354 174.483C117.873 174.483 116.461 174.614 116.913 174.431C117.374 174.246 117.81 174.749 117.95 175.185C118.063 175.534 118.123 175.936 118.169 176.303C118.212 176.642 118.106 175.809 118.043 175.705C117.223 174.352 115.791 175.719 115.277 176.589" stroke="#151515" stroke-width="3" stroke-linecap="round"/>
<path d="M72.0723 166.904C70.9439 169.924 70.1866 172.743 71.1967 175.957C72.5451 180.247 75.9649 180.824 79.365 181.784C80.5114 182.108 83.6945 181.146 84.1922 182.591C84.415 183.237 84.5002 183.775 85.2637 183.332C85.9238 182.949 87.061 181.069 86.9572 181.16C86.7744 181.32 85.0367 183.697 85.0678 183.709C85.7778 183.998 86.5018 183.976 87.2337 184.36C87.4157 184.455 88.4027 184.765 88.2706 184.815C86.775 185.378 86.0369 184.606 85.448 183.202C85.0377 182.224 84.3116 184.22 84.1001 184.698" stroke="#151515" stroke-width="3" stroke-linecap="round"/>
<path d="M106.04 98.349C102.928 98.1051 99.8193 97.846 96.711 97.5705" stroke="#151515" stroke-width="3" stroke-linecap="round"/>
<path d="M86.1758 99.8719C84.1253 98.1844 82.0449 96.5418 79.97 94.8941C79.3071 94.3678 78.5489 93.895 77.9817 93.2451" stroke="#151515" stroke-width="3" stroke-linecap="round"/>
<path d="M104.671 120.797C102.502 119.193 99.7535 118.655 97.2424 118.216C94.1496 117.675 91.2401 118.056 88.234 118.994C85.9187 119.716 83.3801 120.978 81.7272 123.065" stroke="#151515" stroke-width="3" stroke-linecap="round"/>
<path d="M105.841 121.026C105.195 121.118 104.584 121.279 103.968 121.536" stroke="#151515" stroke-width="3" stroke-linecap="round"/>
<path d="M83.1321 124.595C82.3093 124.12 81.1417 123.635 80.5568 122.811" stroke="#151515" stroke-width="3" stroke-linecap="round"/>
<path fill-rule="evenodd" clip-rule="evenodd" d="M277.261 77.8844C288.066 78.5985 295.144 89.2775 302.284 98.0506C308.766 106.015 315.693 114.434 315.631 125.029C315.57 135.577 308.122 143.467 301.972 151.67C294.654 161.43 288.887 175.582 277.261 176.206C265.513 176.836 257.661 164.046 249.961 154.461C243.02 145.821 236.335 136.457 236.145 125.029C235.953 113.426 241.595 102.981 248.969 94.5268C256.619 85.7548 266.113 77.1476 277.261 77.8844Z" fill="#FF5C00"/>
<ellipse rx="3.2432" ry="6.43894" transform="matrix(0.992466 0.122521 -0.0970214 0.995282 260.09 112.622)" fill="#F8F8F8"/>
<ellipse rx="2.29707" ry="4.56053" transform="matrix(0.992466 0.122521 -0.0970214 0.995282 258.547 113.955)" fill="#151515"/>
<ellipse rx="3.2432" ry="6.43894" transform="matrix(0.992466 0.122521 -0.0970214 0.995282 272.627 115.941)" fill="#F8F8F8"/>
<ellipse rx="2.29707" ry="4.56053" transform="matrix(0.992466 0.122521 -0.0970214 0.995282 270.977 116.563)" fill="#151515"/>
<path d="M256.42 163.464C253.338 163.759 251.763 167.348 251.763 170.453C251.763 172.052 251.695 172.866 250.276 173.476C248.701 174.153 246.954 174.758 245.253 174.782C244.857 174.788 242.127 174.782 243.841 174.782C244.29 174.782 245.611 174.903 245.188 174.734C244.757 174.561 244.349 175.029 244.218 175.435C244.113 175.759 244.056 176.134 244.013 176.475C243.973 176.79 244.073 176.015 244.132 175.919C244.898 174.659 246.237 175.931 246.719 176.741" stroke="#151515" stroke-width="3" stroke-linecap="round"/>
<path d="M286.997 168.167C288.053 170.976 288.761 173.599 287.816 176.588C286.555 180.579 283.356 181.116 280.176 182.009C279.104 182.31 276.126 181.415 275.661 182.759C275.452 183.36 275.373 183.86 274.659 183.448C274.041 183.092 272.977 181.343 273.075 181.428C273.246 181.577 274.871 183.788 274.842 183.799C274.178 184.068 273.501 184.048 272.816 184.404C272.646 184.493 271.723 184.781 271.846 184.828C273.245 185.351 273.935 184.633 274.486 183.327C274.87 182.418 275.549 184.275 275.747 184.719" stroke="#151515" stroke-width="3" stroke-linecap="round"/>
<path d="M255.226 104.399C258.137 104.172 261.044 103.931 263.952 103.675" stroke="#151515" stroke-width="3" stroke-linecap="round"/>
<path d="M273.806 105.816C275.724 104.246 277.67 102.718 279.61 101.185C280.23 100.696 280.94 100.256 281.47 99.6515" stroke="#151515" stroke-width="3" stroke-linecap="round"/>
<path d="M256.506 125.28C258.535 123.787 261.105 123.287 263.454 122.879C266.347 122.376 269.068 122.73 271.88 123.603C274.046 124.275 276.42 125.448 277.966 127.39" stroke="#151515" stroke-width="3" stroke-linecap="round"/>
<path d="M255.411 125.493C256.015 125.578 256.587 125.728 257.163 125.967" stroke="#151515" stroke-width="3" stroke-linecap="round"/>
<path d="M276.653 128.812C277.422 128.371 278.515 127.92 279.062 127.153" stroke="#151515" stroke-width="3" stroke-linecap="round"/>
<path d="M43 120C33.1496 120.31 28.1148 124.095 28.1148 127.37C28.1148 129.055 27.8965 129.914 23.3598 130.557C18.3267 131.271 12.7421 131.909 7.30309 131.934C6.0399 131.94 -2.68804 131.934 2.78929 131.934C4.22572 131.934 8.44909 132.062 7.09635 131.883C5.7176 131.701 4.41611 132.195 3.99527 132.623C3.65909 132.965 3.47946 133.36 3.3406 133.719C3.21227 134.052 3.53101 133.235 3.71962 133.133C6.17003 131.805 10.4508 133.146 11.9892 134" stroke="#151515" stroke-width="3" stroke-linecap="round"/>
<path d="M128.566 119.383C136.147 121.713 141.147 119.133 142.162 115.728C142.685 113.975 143.117 113.14 146.764 113.693C150.809 114.307 155.251 115.147 159.391 116.585C160.353 116.919 166.983 119.276 162.821 117.801C161.73 117.414 158.56 116.144 159.532 116.694C160.524 117.255 161.666 117.092 162.118 116.76C162.48 116.495 162.739 116.133 162.956 115.796C163.156 115.485 162.661 116.248 162.486 116.304C160.212 117.025 157.375 114.478 156.471 113.175" stroke="#151515" stroke-width="3" stroke-linecap="round"/>
<path d="M240.306 106.641C230.386 108.263 225.818 114.08 226.273 118.585C226.507 120.903 226.405 122.112 221.906 123.546C216.914 125.138 211.353 126.694 205.855 127.388C204.578 127.55 195.749 128.6 201.289 127.936C202.742 127.762 207.032 127.425 205.639 127.343C204.219 127.26 202.971 128.096 202.605 128.737C202.312 129.248 202.185 129.813 202.095 130.324C202.011 130.797 202.22 129.635 202.397 129.472C204.691 127.348 209.207 128.673 210.882 129.661" stroke="#151515" stroke-width="3" stroke-linecap="round"/>
<path d="M315.71 121.607C322.477 118.732 324.745 113.445 323.669 109.998C323.115 108.223 322.985 107.263 325.938 105.412C329.213 103.359 332.898 101.242 336.683 99.8081C337.562 99.4752 343.65 97.2232 339.831 98.6403C338.829 99.0119 335.842 99.9701 336.844 99.8083C337.865 99.6434 338.611 98.7872 338.763 98.2275C338.885 97.7804 338.881 97.3184 338.86 96.9038C338.84 96.5206 338.886 97.4629 338.788 97.6193C337.515 99.651 334.09 99.347 332.736 98.8461" stroke="#151515" stroke-width="3" stroke-linecap="round"/>
</svg>
